<svg width="84" height="84" viewBox="0 0 84 84" fill="none" xmlns="http://www.w3.org/2000/svg">
<path d="M0.0145178 47.1763V44.49H6.07328L0 38.9626V35.8262L5.48773 40.8793L13.4338 35.7197V38.798L7.20567 42.7427L9.09298 44.4755H13.4435V47.1569L0.00967853 47.1714L0.0145178 47.1763Z" fill="white"/>
<path d="M7.16759 33.6581C3.17036 31.9399 1.66535 28.7745 3.1752 25.2606C4.68505 21.7418 8.0193 20.6576 12.0117 22.371C16.0089 24.0893 17.5139 27.2547 16.0041 30.7686C14.4942 34.2874 11.1648 35.3715 7.16759 33.6581ZM14.2571 30.0184C15.1427 27.9613 14.0587 26.1753 10.9567 24.8395C7.85477 23.5085 5.8126 23.9489 4.92701 26.0108C4.03659 28.0872 5.12542 29.8538 8.22739 31.1897C11.3294 32.5256 13.3619 32.0948 14.2571 30.0184Z" fill="white"/>
<path d="M9.78906 14.4086L12.3394 12.1337L22.8502 15.8606L16.3318 8.56658L18.1707 6.92578L27.1233 16.9496L24.6988 19.1132L13.8637 15.2508L20.5903 22.782L18.7369 24.4373L9.78906 14.4086Z" fill="white"/>
<path d="M26.4222 12.6906L28.9532 11.8436C29.5629 13.4312 30.7437 13.9587 32.4278 13.3973C34.0731 12.8455 34.7506 11.8678 34.3006 10.5223C34.0296 9.70911 33.3666 9.43807 31.8325 9.55907L29.3306 9.72847C26.8868 9.89788 25.527 8.9589 24.9704 7.2939C24.1816 4.94161 25.5173 2.93781 28.5612 1.91655C31.4647 0.943687 33.7392 1.73746 34.6248 3.97843L32.0745 4.83513C31.5567 3.59122 30.5598 3.19434 29.1467 3.67351C27.6224 4.18656 27.0368 5.0723 27.3852 6.11292C27.6804 6.99866 28.4499 7.2939 29.6936 7.18742L31.9196 7.01318C34.5619 6.79537 36.154 7.66175 36.7589 9.46711C37.5913 11.9452 36.1637 14.0991 33.0133 15.1542C29.8291 16.2239 27.3901 15.2898 26.4222 12.7003V12.6906Z" fill="white"/>
<path d="M47.6767 0V2.03284H43.2197V13.441H40.5387V2.03768H36.0527V0.0048401H47.6767V0Z" fill="white"/>
<path d="M51.0541 0.633789L54.2625 1.80993L55.9272 12.8357L59.2905 3.65401L61.6037 4.50103L56.9822 17.1192L53.9334 16.0011L52.2349 4.62687L48.7603 14.1086L46.4277 13.2568L51.0541 0.633789Z" fill="white"/>
<path d="M71.2301 11.9208L73.4126 14.2247L67.0586 27.0607L65.1713 25.0665L66.6618 22.1092L62.8484 18.0823L59.8142 19.4133L58.0527 17.5547L71.2252 11.9111L71.2301 11.9208ZM67.6006 20.2506L70.3348 14.8055L64.7648 17.2594L67.6006 20.2555V20.2506Z" fill="white"/>
<path d="M80.1342 24.041L82.0263 29.7475C82.5925 31.4464 82.5296 32.6274 82.0021 33.5325C81.6102 34.2536 80.9085 34.8006 79.9697 35.1103C78.4646 35.6089 77.1193 35.1684 76.1805 33.9487C76.1418 35.0232 75.5611 35.8267 74.2642 36.4123L72.072 37.3949C71.3509 37.7143 70.9444 37.966 70.6879 38.2661L69.8217 35.6621C70.1217 35.3862 70.5331 35.1297 71.2154 34.8248L72.6914 34.1762C73.6351 33.7648 74.0319 33.4163 74.2303 33C74.4432 32.5741 74.4481 32.0611 74.1867 31.2624L73.4657 29.0844L68.2199 30.822L67.373 28.2713L80.1294 24.041H80.1342ZM76.2386 31.214C76.5193 32.0659 76.858 32.487 77.2984 32.6903C77.7097 32.8694 78.2178 32.8548 78.8228 32.6564C79.3357 32.487 79.7083 32.245 79.9406 31.9304C80.2794 31.4657 80.3181 30.8801 80.0132 29.9605L79.1034 27.2113L75.3288 28.4649L76.2386 31.2092V31.214Z" fill="white"/>
<path d="M74.8339 38.6969L74.65 41.3589C72.9514 41.3154 72.0126 42.206 71.8916 43.9774C71.7706 45.7102 72.4143 46.7073 73.8322 46.8041C74.6887 46.8621 75.192 46.3539 75.6662 44.8922L76.4647 42.5157C77.239 40.1925 78.6327 39.2971 80.3797 39.4181C82.8574 39.5875 84.1979 41.5864 83.9801 44.7906C83.772 47.8447 82.1702 49.6452 79.7603 49.6113L79.9442 46.9299C81.2895 46.9299 82.0347 46.1555 82.1363 44.6647C82.2477 43.0627 81.6524 42.1818 80.5539 42.1043C79.6248 42.0414 79.0586 42.6367 78.6763 43.8274L77.9891 45.9522C77.1809 48.4787 75.7727 49.6162 73.8757 49.4855C71.2674 49.3064 69.8253 47.1671 70.0527 43.8516C70.2801 40.4974 72.0755 38.6001 74.8387 38.6969H74.8339Z" fill="white"/>
<path d="M66.9939 54.8041C68.6925 51.3531 72.0849 50.4238 75.9853 52.3501C79.8858 54.2716 81.2166 57.529 79.5131 60.98C78.1339 63.7776 75.8885 64.8763 73.4447 64.0002L74.64 61.5754C76.0385 62.0352 77.1177 61.527 77.8049 60.1378C78.8114 58.0953 77.8242 56.2561 74.7948 54.7605C71.7655 53.2649 69.7039 53.6037 68.6974 55.6462C67.9715 57.1176 68.2425 58.3373 69.5781 59.1795L68.4119 61.5415C66.1229 60.1427 65.5857 57.65 66.9891 54.8041H66.9939Z" fill="white"/>
<path d="M63.4429 63.4975L58.7439 67.7374L57.418 66.2709L64.1107 60.2256L73.1165 70.201L66.5642 76.1205L65.2382 74.6539L69.7968 70.535L67.3433 67.8197L63.0606 71.687L61.7346 70.2204L66.0173 66.3532L63.4429 63.4975Z" fill="white"/>
<path d="M61.2313 79.5133L58.0132 80.6604L49.6848 73.2454L52.9659 82.4561L50.643 83.2838L46.1328 70.6269L49.1912 69.5379L57.7664 77.1997L54.3789 67.6889L56.7163 66.8564L61.2265 79.5133H61.2313Z" fill="white"/>
<path d="M34.6543 83.5938L34.7269 81.5609L39.1839 81.7158L39.5807 70.3174L42.2665 70.4093L41.8696 81.8078L46.346 81.9627L46.2734 83.9955L34.6543 83.5889V83.5938Z" fill="white"/>
<path d="M29.1135 81.9185L32.2446 74.0436C32.7188 72.8481 32.7624 71.9818 32.4526 71.2945C32.1526 70.6943 31.6009 70.2103 30.7831 69.886C29.8975 69.5327 29.1426 69.5133 28.4893 69.7989C27.8263 70.099 27.2698 70.7379 26.8149 71.885L23.7178 79.7695L21.2207 78.7773L24.2694 71.0137C25.034 69.0874 26.1326 68.1 27.4876 67.7176C28.6345 67.4127 29.9943 67.5289 31.4848 68.1242C32.9414 68.705 34.0012 69.5278 34.6061 70.5297C35.3659 71.7543 35.4627 73.2208 34.6884 75.1617L31.6058 82.9107L29.1087 81.9185H29.1135Z" fill="white"/>
<path d="M15.3406 71.5222L23.6593 64.3298L25.2804 66.2078L15.1131 74.9974L12.2918 71.7352L17.3731 62.9698L7.96552 66.7354L5.32812 63.6861L15.4954 54.8965L17.1069 56.7599L8.74949 63.991L19.6766 59.6495L21.1767 61.3871L15.3309 71.5271L15.3406 71.5222Z" fill="white"/>
</svg>
